HIERARCHY
ROOT SpineBase
{
  OFFSET 0.000000 0.000000 0.000000
  CHANNELS 6 Xposition Yposition Zposition Zrotation Xrotation Yrotation
  JOINT SpineMid
  {
    OFFSET 0.000000 31.110498 0.000000
    CHANNELS 3 Zrotation Xrotation Yrotation
    JOINT SpineShoulder
    {
      OFFSET -0.209662 23.063752 -1.001762
      CHANNELS 3 Zrotation Xrotation Yrotation
      JOINT Neck
      {
        OFFSET 0.028406 7.653529 -0.672905
        CHANNELS 3 Zrotation Xrotation Yrotation
        JOINT Head
        {
          OFFSET 2.597579 9.190448 5.785404
          CHANNELS 3 Zrotation Xrotation Yrotation
          End Site
          {
            OFFSET 0 0 0
          }
        }
      }
      JOINT ShoulderLeft
      {
        OFFSET -0.414453 -4.146741 -11.992681
        CHANNELS 3 Zrotation Xrotation Yrotation
        JOINT ElbowLeft
        {
          OFFSET 10.624786 -23.093227 -5.621835
          CHANNELS 3 Zrotation Xrotation Yrotation
          JOINT WristLeft
          {
            OFFSET 6.386128 -23.027637 5.205482
            CHANNELS 3 Zrotation Xrotation Yrotation
            JOINT HandLeft
            {
              OFFSET 0.123748 -8.006187 4.236491
              CHANNELS 3 Zrotation Xrotation Yrotation
              JOINT HandTipLeft
              {
                OFFSET 2.774925 -6.969586 1.776368
                CHANNELS 3 Zrotation Xrotation Yrotation
                End Site
                {
                  OFFSET 0 0 0
                }
              }
              JOINT ThumbLeft
              {
                OFFSET -5.034554 -0.555501 -1.743815
                CHANNELS 3 Zrotation Xrotation Yrotation
                End Site
                {
                  OFFSET 0 0 0
                }
              }
            }
          }
        }
      }
      JOINT ShoulderRight
      {
        OFFSET 9.149296 -5.690714 -11.804164
        CHANNELS 3 Zrotation Xrotation Yrotation
        JOINT ElbowRight
        {
          OFFSET 4.065277 -28.763940 -4.660386
          CHANNELS 3 Zrotation Xrotation Yrotation
          JOINT WristRight
          {
            OFFSET -4.211274 -29.613528 -0.347408
            CHANNELS 3 Zrotation Xrotation Yrotation
            JOINT HandRight
            {
              OFFSET -1.826708 -6.821651 -1.418785
              CHANNELS 3 Zrotation Xrotation Yrotation
              JOINT HandTipRight
              {
                OFFSET -6.351668 -0.125128 1.786884
                CHANNELS 3 Zrotation Xrotation Yrotation
                End Site
                {
                  OFFSET 0 0 0
                }
              }
              JOINT ThumbRight
              {
                OFFSET -5.981430 -1.146350 0.972569
                CHANNELS 3 Zrotation Xrotation Yrotation
                End Site
                {
                  OFFSET 0 0 0
                }
              }
            }
          }
        }
      }
    }
  }
  JOINT HipLeft
  {
    OFFSET -5.158886 -0.688442 -4.865092
    CHANNELS 3 Zrotation Xrotation Yrotation
    JOINT KneeLeft
    {
      OFFSET -8.353970 -33.455094 14.707194
      CHANNELS 3 Zrotation Xrotation Yrotation
      JOINT AnkleLeft
      {
        OFFSET -1.180077 -31.033511 3.510221
        CHANNELS 3 Zrotation Xrotation Yrotation
        JOINT FootLeft
        {
          OFFSET 1.347175 -3.769581 -13.125358
          CHANNELS 3 Zrotation Xrotation Yrotation
          End Site
          {
            OFFSET 0 0 0
          }
        }
      }
    }
  }
  JOINT HipRight
  {
    OFFSET 6.462263 2.755152 -2.084210
    CHANNELS 3 Zrotation Xrotation Yrotation
    JOINT KneeRight
    {
      OFFSET -0.743629 -37.618208 -3.345285
      CHANNELS 3 Zrotation Xrotation Yrotation
      JOINT AnkleRight
      {
        OFFSET -2.726343 -31.812534 2.250300
        CHANNELS 3 Zrotation Xrotation Yrotation
        JOINT FootRight
        {
          OFFSET 1.199589 -3.671499 -13.107353
          CHANNELS 3 Zrotation Xrotation Yrotation
          End Site
          {
            OFFSET 0 0 0
          }
        }
      }
    }
  }
}
MOTION
Frames: 7
Frame Time: 0.033333
-65.225116 71.953461 297.713482 -0.855700 0.975494 -23.102322 -0.740041 -0.143788 23.044671 0.027025 -0.343747 -0.086233 -4.007080 0.036506 3.330189 0.000000 0.000000 0.000000 -0.065432 0.396601 1.092697 -4.203246 -0.237858 -2.096364 2.869992 11.935009 0.117640 -9.200919 -7.983073 -1.772627 0.000000 0.000000 0.000000 0.000000 0.000000 0.000000 -2.530750 -1.299063 0.673379 16.210115 -16.844888 3.523629 14.008961 -2.191261 -4.729237 63.654342 46.789084 -2.455537 0.000000 0.000000 0.000000 0.000000 0.000000 0.000000 1.862297 -0.262498 23.451641 -2.074858 -2.972599 -0.399385 -1.337007 2.333386 9.310261 0.000000 0.000000 0.000000 1.169884 -0.561388 23.115339 -0.761301 -1.246489 0.044635 -7.157118 -22.230322 70.537484 0.000000 0.000000 0.000000
-65.181340 72.001522 297.658438 -0.759419 1.030983 -23.371072 -0.795224 -0.154586 23.314422 0.090362 -0.299932 -0.078307 -3.499863 -0.184258 2.968491 0.000000 0.000000 0.000000 -0.328781 0.171994 1.067785 -3.842885 -0.388217 -2.108015 2.316015 12.085899 -0.019292 -8.931324 -8.792767 -2.028319 0.000000 0.000000 0.000000 0.000000 0.000000 0.000000 -2.598648 -1.316041 0.668850 16.176335 -16.941039 3.540961 14.479608 -3.959977 -3.984572 66.329617 44.933633 -8.194754 0.000000 0.000000 0.000000 0.000000 0.000000 0.000000 1.843329 -0.263028 23.740302 -2.296197 -3.263650 -0.434217 -1.165886 2.595910 9.223112 0.000000 0.000000 0.000000 1.843181 -0.205729 23.311747 -1.655621 -1.517890 0.128846 8.959487 -37.021257 115.409914 0.000000 0.000000 0.000000
-65.134594 72.036709 297.616610 -0.653369 1.094788 -23.545782 -0.826452 -0.158775 23.491642 0.148464 -0.233602 -0.069182 -2.901775 -0.483325 2.545480 0.000000 0.000000 0.000000 -0.622818 -0.114530 1.021834 -3.476808 -0.423657 -2.074330 2.466721 11.892090 0.126328 -8.239121 -9.113203 -2.065973 0.000000 0.000000 0.000000 0.000000 0.000000 0.000000 -2.669737 -1.438080 0.642370 16.116102 -16.956243 3.553547 15.254944 -5.317339 -3.554796 69.714578 43.856572 -12.760040 0.000000 0.000000 0.000000 0.000000 0.000000 0.000000 1.801324 -0.436591 23.935552 -2.411324 -3.158199 -0.467358 -1.010194 2.601345 9.102988 0.000000 0.000000 0.000000 1.846229 -0.320357 23.483975 -1.851889 -1.527832 0.127203 12.474605 -38.119850 121.565939 0.000000 0.000000 0.000000
-65.098345 72.045707 297.588383 -0.558070 1.152613 -23.478926 -0.843620 -0.132393 23.428553 0.205577 -0.157477 -0.059690 -2.214367 -0.669388 2.026563 0.000000 0.000000 0.000000 -0.876160 -0.411662 0.965776 -3.131661 -0.391091 -2.001359 2.582106 11.899634 0.250124 -8.125392 -10.232313 -2.676191 0.000000 0.000000 0.000000 0.000000 0.000000 0.000000 -2.745465 -1.625785 0.604710 16.047085 -16.927765 3.562605 16.382897 -5.875141 -3.684228 68.540230 42.899059 -14.642619 0.000000 0.000000 0.000000 0.000000 0.000000 0.000000 1.747952 -0.651661 23.882771 -2.450816 -2.872453 -0.490321 -0.898374 2.454968 8.993721 0.000000 0.000000 0.000000 0.971169 -0.834754 23.491614 -0.422255 -1.623802 0.103181 20.418693 -40.540005 131.321013 0.000000 0.000000 0.000000
-65.070488 72.047007 297.570515 -0.469961 1.200859 -23.544902 -0.858098 -0.092758 23.498595 0.257986 -0.092475 -0.050829 -1.587819 -0.795599 1.535622 0.000000 0.000000 0.000000 -1.074795 -0.676215 0.908966 -2.865169 -0.292585 -1.908001 3.033836 11.309319 0.471175 -9.238802 -9.723752 -3.256455 0.000000 0.000000 0.000000 0.000000 0.000000 0.000000 -2.808364 -1.857814 0.557481 15.967919 -16.846304 3.567417 17.303169 -6.368414 -3.760787 67.699868 41.146243 -17.325331 0.000000 0.000000 0.000000 0.000000 0.000000 0.000000 1.727435 -0.793986 23.973914 -2.580918 -2.662052 -0.530286 -0.760068 2.333253 8.937475 0.000000 0.000000 0.000000 0.910638 -0.913074 23.557083 -0.370079 -1.461154 0.094220 15.817608 -41.061633 117.697368 0.000000 0.000000 0.000000
-65.039467 72.059228 297.554680 -0.374680 1.244255 -23.606553 -0.860037 -0.049879 23.565075 0.290900 -0.053797 -0.043167 -0.894671 -0.897323 1.009063 0.000000 0.000000 0.000000 -1.201730 -0.854336 0.861097 -2.865900 0.025421 -1.786574 4.337481 10.172644 0.967171 -9.986019 -8.387462 -3.465947 0.000000 0.000000 0.000000 0.000000 0.000000 0.000000 -2.856110 -2.094401 0.503470 15.872777 -16.725825 3.570789 17.880248 -7.159866 -3.523125 66.989429 41.595209 -17.736112 0.000000 0.000000 0.000000 0.000000 0.000000 0.000000 1.645571 -0.913967 24.031695 -2.641696 -2.535273 -0.538934 -0.667363 2.248537 8.940958 0.000000 0.000000 0.000000 0.841696 -0.990026 23.617893 -0.255137 -1.204775 0.082446 11.061913 -41.440202 100.438987 0.000000 0.000000 0.000000
-65.010468 72.073717 297.547161 -0.283865 1.279171 -23.584491 -0.847628 -0.003382 23.548308 0.331031 -0.022955 -0.034279 -0.366680 -0.989720 0.573960 0.000000 0.000000 0.000000 -1.365185 -1.060450 0.793145 -2.791652 0.227669 -1.683259 4.720797 9.212019 1.109317 -9.403874 -7.655739 -3.204748 0.000000 0.000000 0.000000 0.000000 0.000000 0.000000 -2.938689 -2.336285 0.446989 15.793910 -16.580897 3.568659 18.536857 -8.033978 -3.254459 67.775626 42.046515 -18.777159 0.000000 0.000000 0.000000 0.000000 0.000000 0.000000 1.510935 -1.238025 23.990350 -2.434731 -2.085168 -0.511844 -0.692966 2.010610 8.886988 0.000000 0.000000 0.000000 0.772056 -1.058697 23.594794 -0.018307 -1.080851 0.091102 4.958026 -39.229527 82.978953 0.000000 0.000000 0.000000
